<?xml version="1.0" standalone="no"?>
<!DOCTYPE svg PUBLIC "-//W3C//DTD SVG 20010904//EN"
 "http://www.w3.org/TR/2001/REC-SVG-20010904/DTD/svg10.dtd">
<svg version="1.0" xmlns="http://www.w3.org/2000/svg"
 width="104.000000pt" height="97.000000pt" viewBox="0 0 104.000000 97.000000"
 preserveAspectRatio="xMidYMid meet">

<g transform="translate(0.000000,97.000000) scale(0.100000,-0.100000)"
fill="#000000" stroke="none">
<path d="M418 954 c-88 -21 -156 -60 -225 -130 -189 -188 -188 -481 1 -670
190 -190 482 -190 672 0 189 189 190 482 1 670 -123 124 -284 170 -449 130z
m260 -35 c316 -108 409 -514 173 -750 -219 -219 -596 -156 -729 122 -174 365
175 759 556 628z"/>
<path d="M463 759 c-53 -26 -83 -83 -83 -157 0 -40 -4 -52 -15 -52 -8 0 -24
-9 -35 -20 -18 -18 -20 -33 -20 -140 0 -168 -11 -160 220 -160 231 0 220 -8
220 160 0 107 -2 122 -20 140 -11 11 -27 20 -35 20 -11 0 -15 12 -15 52 0 75
-30 131 -84 157 -53 26 -80 26 -133 0z m134 -25 c37 -23 54 -60 60 -124 l6
-60 -132 0 -131 0 0 38 c0 133 100 207 197 146z m113 -224 c17 -17 20 -33 20
-120 0 -143 4 -140 -200 -140 -204 0 -200 -3 -200 140 0 143 -4 140 200 140
147 0 162 -2 180 -20z"/>
</g>
</svg>
